<?xml version="1.0" encoding="UTF-8" standalone="no"?>
<!DOCTYPE svg PUBLIC "-//W3C//DTD SVG 1.1//EN"
 "http://www.w3.org/Graphics/SVG/1.1/DTD/svg11.dtd">
<!-- Generated by graphviz version 14.1.2 (0)
 -->
<!-- Title: snakemake_dag Pages: 1 -->
<svg width="789pt" height="576pt"
 viewBox="0.00 0.00 789.00 576.00" xmlns="http://www.w3.org/2000/svg" xmlns:xlink="http://www.w3.org/1999/xlink">
<g id="graph0" class="graph" transform="scale(0.986301 0.986301) rotate(0) translate(4 580)">
<title>snakemake_dag</title>
<polygon fill="white" stroke="none" points="-4,4 -4,-580 796,-580 796,4 -4,4"/>
<g id="clust1" class="cluster">
<title>cluster_legend</title>
<polygon fill="#f5f5f5" stroke="#999999" points="652.31,-251.22 652.31,-566.7 783.66,-566.7 783.66,-251.22 652.31,-251.22"/>
<text xml:space="preserve" text-anchor="middle" x="717.99" y="-553.2" font-family="sans" font-size="10.00">Legend</text>
</g>
<!-- 0 -->
<g id="node1" class="node">
<title>0</title>
<path fill="#e6f4ea" fill-opacity="0.752941" stroke="forestgreen" stroke-width="2" d="M420.33,-123C420.33,-123 349.58,-123 349.58,-123 343.58,-123 337.58,-117 337.58,-111 337.58,-111 337.58,-99 337.58,-99 337.58,-93 343.58,-87 349.58,-87 349.58,-87 420.33,-87 420.33,-87 426.33,-87 432.33,-93 432.33,-99 432.33,-99 432.33,-111 432.33,-111 432.33,-117 426.33,-123 420.33,-123"/>
<text xml:space="preserve" text-anchor="middle" x="384.95" y="-101.12" font-family="sans" font-size="10.00">solve_constrained</text>
</g>
<!-- 106 -->
<g id="node13" class="node">
<title>106</title>
<polygon fill="lightyellow" stroke="darkorange" stroke-width="2" points="515.95,-39 247.95,-39 247.95,-3 521.95,-3 521.95,-33 515.95,-39"/>
<polyline fill="none" stroke="darkorange" stroke-width="2" points="515.95,-39 515.95,-33"/>
<polyline fill="none" stroke="darkorange" stroke-width="2" points="521.95,-33 515.95,-33"/>
<text xml:space="preserve" text-anchor="middle" x="384.95" y="-17.32" font-family="sans" font-size="9.00">results/networks/{fes_scenario}/constrained_clustered/{year}.nc</text>
</g>
<!-- 0&#45;&gt;106 -->
<g id="edge15" class="edge">
<title>0&#45;&gt;106</title>
<path fill="none" stroke="darkorange" stroke-width="2" stroke-dasharray="5,2" d="M384.95,-86.21C384.95,-76.43 384.95,-64.02 384.95,-52.73"/>
<polygon fill="darkorange" stroke="darkorange" stroke-width="2" points="388.45,-52.79 384.95,-42.79 381.45,-52.79 388.45,-52.79"/>
</g>
<!-- 1 -->
<g id="node2" class="node">
<title>1</title>
<path fill="#e6f4ea" fill-opacity="0.752941" stroke="forestgreen" stroke-width="2" d="M264.7,-206C264.7,-206 145.2,-206 145.2,-206 139.2,-206 133.2,-200 133.2,-194 133.2,-194 133.2,-182 133.2,-182 133.2,-176 139.2,-170 145.2,-170 145.2,-170 264.7,-170 264.7,-170 270.7,-170 276.7,-176 276.7,-182 276.7,-182 276.7,-194 276.7,-194 276.7,-200 270.7,-206 264.7,-206"/>
<text xml:space="preserve" text-anchor="middle" x="204.95" y="-184.12" font-family="sans" font-size="10.00">prepare_constrained_network</text>
</g>
<!-- 1&#45;&gt;0 -->
<g id="edge1" class="edge">
<title>1&#45;&gt;0</title>
<path fill="none" stroke="grey" stroke-width="2" d="M244.9,-169.02C271,-157.28 305.34,-141.83 333.48,-129.16"/>
<polygon fill="grey" stroke="grey" stroke-width="2" points="334.67,-132.46 342.36,-125.17 331.8,-126.08 334.67,-132.46"/>
</g>
<!-- 2 -->
<g id="node3" class="node">
<title>2</title>
<path fill="#ddeeff" fill-opacity="0.752941" stroke="steelblue" stroke-width="2" d="M85.7,-541C85.7,-541 14.2,-541 14.2,-541 8.2,-541 2.2,-535 2.2,-529 2.2,-529 2.2,-517 2.2,-517 2.2,-511 8.2,-505 14.2,-505 14.2,-505 85.7,-505 85.7,-505 91.7,-505 97.7,-511 97.7,-517 97.7,-517 97.7,-529 97.7,-529 97.7,-535 91.7,-541 85.7,-541"/>
<text xml:space="preserve" text-anchor="middle" x="49.95" y="-519.12" font-family="sans" font-size="10.00">compose_network</text>
</g>
<!-- 2&#45;&gt;1 -->
<g id="edge6" class="edge">
<title>2&#45;&gt;1</title>
<path fill="none" stroke="grey" stroke-width="2" d="M42.41,-504.17C37.49,-491.54 31.52,-474.05 28.95,-458 14.47,-367.44 -1.22,-322.33 59.95,-254 76.8,-235.18 100.14,-221.51 123.17,-211.71"/>
<polygon fill="grey" stroke="grey" stroke-width="2" points="124.35,-215.01 132.34,-208.06 121.76,-208.51 124.35,-215.01"/>
</g>
<!-- 99 -->
<g id="node6" class="node">
<title>99</title>
<path fill="#fbfbfb" fill-opacity="0.752941" stroke="black" stroke-width="2" d="M140.08,-458C140.08,-458 49.83,-458 49.83,-458 43.83,-458 37.83,-452 37.83,-446 37.83,-446 37.83,-434 37.83,-434 37.83,-428 43.83,-422 49.83,-422 49.83,-422 140.08,-422 140.08,-422 146.08,-422 152.08,-428 152.08,-434 152.08,-434 152.08,-446 152.08,-446 152.08,-452 146.08,-458 140.08,-458"/>
<text xml:space="preserve" text-anchor="middle" x="94.95" y="-436.12" font-family="sans" font-size="10.00">prepare_unconstrained</text>
</g>
<!-- 2&#45;&gt;99 -->
<g id="edge10" class="edge">
<title>2&#45;&gt;99</title>
<path fill="none" stroke="grey" stroke-width="2" d="M59.94,-504.02C65.47,-494.06 72.49,-481.43 78.78,-470.1"/>
<polygon fill="grey" stroke="grey" stroke-width="2" points="81.73,-472.01 83.52,-461.57 75.61,-468.61 81.73,-472.01"/>
</g>
<!-- 24 -->
<g id="node4" class="node">
<title>24</title>
<path fill="#ddeeff" fill-opacity="0.752941" stroke="steelblue" stroke-width="2" d="M636.45,-290C636.45,-290 491.45,-290 491.45,-290 485.45,-290 479.45,-284 479.45,-278 479.45,-278 479.45,-266 479.45,-266 479.45,-260 485.45,-254 491.45,-254 491.45,-254 636.45,-254 636.45,-254 642.45,-254 648.45,-260 648.45,-266 648.45,-266 648.45,-278 648.45,-278 648.45,-284 642.45,-290 636.45,-290"/>
<text xml:space="preserve" text-anchor="middle" x="563.95" y="-268.12" font-family="sans" font-size="10.00">add_transmission_projects_and_dlr</text>
</g>
<!-- 105 -->
<g id="node12" class="node">
<title>105</title>
<path fill="#e6f4ea" fill-opacity="0.752941" stroke="forestgreen" stroke-width="2" d="M610.83,-206C610.83,-206 495.08,-206 495.08,-206 489.08,-206 483.08,-200 483.08,-194 483.08,-194 483.08,-182 483.08,-182 483.08,-176 489.08,-170 495.08,-170 495.08,-170 610.83,-170 610.83,-170 616.83,-170 622.83,-176 622.83,-182 622.83,-182 622.83,-194 622.83,-194 622.83,-200 616.83,-206 610.83,-206"/>
<text xml:space="preserve" text-anchor="middle" x="552.95" y="-184.12" font-family="sans" font-size="10.00">identify_boundary_crossings</text>
</g>
<!-- 24&#45;&gt;105 -->
<g id="edge14" class="edge">
<title>24&#45;&gt;105</title>
<path fill="none" stroke="grey" stroke-width="2" d="M561.56,-253.21C560.24,-243.32 558.55,-230.75 557.02,-219.36"/>
<polygon fill="grey" stroke="grey" stroke-width="2" points="560.53,-219.2 555.74,-209.76 553.6,-220.13 560.53,-219.2"/>
</g>
<!-- 98 -->
<g id="node5" class="node">
<title>98</title>
<path fill="#fbfbfb" fill-opacity="0.752941" stroke="black" stroke-width="2" d="M135.58,-374C135.58,-374 54.33,-374 54.33,-374 48.33,-374 42.33,-368 42.33,-362 42.33,-362 42.33,-350 42.33,-350 42.33,-344 48.33,-338 54.33,-338 54.33,-338 135.58,-338 135.58,-338 141.58,-338 147.58,-344 147.58,-350 147.58,-350 147.58,-362 147.58,-362 147.58,-368 141.58,-374 135.58,-374"/>
<text xml:space="preserve" text-anchor="middle" x="94.95" y="-352.12" font-family="sans" font-size="10.00">solve_unconstrained</text>
</g>
<!-- 98&#45;&gt;1 -->
<g id="edge8" class="edge">
<title>98&#45;&gt;1</title>
<path fill="none" stroke="grey" stroke-width="2" d="M83.14,-337.25C70.61,-315.98 54.69,-279.97 70.95,-254 82.71,-235.22 101.61,-221.74 121.55,-212.1"/>
<polygon fill="grey" stroke="grey" stroke-width="2" points="122.88,-215.34 130.6,-208.08 120.04,-208.94 122.88,-215.34"/>
</g>
<!-- 101 -->
<g id="node8" class="node">
<title>101</title>
<path fill="#e6f4ea" fill-opacity="0.752941" stroke="forestgreen" stroke-width="2" d="M242.45,-290C242.45,-290 91.45,-290 91.45,-290 85.45,-290 79.45,-284 79.45,-278 79.45,-278 79.45,-266 79.45,-266 79.45,-260 85.45,-254 91.45,-254 91.45,-254 242.45,-254 242.45,-254 248.45,-254 254.45,-260 254.45,-266 254.45,-266 254.45,-278 254.45,-278 254.45,-284 248.45,-290 242.45,-290"/>
<text xml:space="preserve" text-anchor="middle" x="166.95" y="-268.12" font-family="sans" font-size="10.00">calc_interconnector_bid_offer_profile</text>
</g>
<!-- 98&#45;&gt;101 -->
<g id="edge12" class="edge">
<title>98&#45;&gt;101</title>
<path fill="none" stroke="grey" stroke-width="2" d="M110.57,-337.21C120.01,-326.46 132.23,-312.55 142.88,-300.42"/>
<polygon fill="grey" stroke="grey" stroke-width="2" points="145.39,-302.86 149.36,-293.03 140.13,-298.24 145.39,-302.86"/>
</g>
<!-- 99&#45;&gt;98 -->
<g id="edge9" class="edge">
<title>99&#45;&gt;98</title>
<path fill="none" stroke="grey" stroke-width="2" d="M94.95,-421.21C94.95,-411.43 94.95,-399.02 94.95,-387.73"/>
<polygon fill="grey" stroke="grey" stroke-width="2" points="98.45,-387.79 94.95,-377.79 91.45,-387.79 98.45,-387.79"/>
</g>
<!-- 100 -->
<g id="node7" class="node">
<title>100</title>
<path fill="#e6f4ea" fill-opacity="0.752941" stroke="forestgreen" stroke-width="2" d="M442.2,-290C442.2,-290 331.7,-290 331.7,-290 325.7,-290 319.7,-284 319.7,-278 319.7,-278 319.7,-266 319.7,-266 319.7,-260 325.7,-254 331.7,-254 331.7,-254 442.2,-254 442.2,-254 448.2,-254 454.2,-260 454.2,-266 454.2,-266 454.2,-278 454.2,-278 454.2,-284 448.2,-290 442.2,-290"/>
<text xml:space="preserve" text-anchor="middle" x="386.95" y="-268.12" font-family="sans" font-size="10.00">process_CfD_strike_prices</text>
</g>
<!-- 100&#45;&gt;1 -->
<g id="edge4" class="edge">
<title>100&#45;&gt;1</title>
<path fill="none" stroke="grey" stroke-width="2" d="M347.01,-253C320.46,-241.04 285.33,-225.22 256.65,-212.29"/>
<polygon fill="grey" stroke="grey" stroke-width="2" points="258.11,-209.11 247.56,-208.2 255.24,-215.5 258.11,-209.11"/>
</g>
<!-- 101&#45;&gt;1 -->
<g id="edge5" class="edge">
<title>101&#45;&gt;1</title>
<path fill="none" stroke="grey" stroke-width="2" d="M175.2,-253.21C179.93,-243 185.98,-229.93 191.4,-218.25"/>
<polygon fill="grey" stroke="grey" stroke-width="2" points="194.42,-220.05 195.45,-209.5 188.07,-217.11 194.42,-220.05"/>
</g>
<!-- 102 -->
<g id="node9" class="node">
<title>102</title>
<path fill="#e6f4ea" fill-opacity="0.752941" stroke="forestgreen" stroke-width="2" d="M327.58,-374C327.58,-374 204.33,-374 204.33,-374 198.33,-374 192.33,-368 192.33,-362 192.33,-362 192.33,-350 192.33,-350 192.33,-344 198.33,-338 204.33,-338 204.33,-338 327.58,-338 327.58,-338 333.58,-338 339.58,-344 339.58,-350 339.58,-350 339.58,-362 339.58,-362 339.58,-368 333.58,-374 327.58,-374"/>
<text xml:space="preserve" text-anchor="middle" x="265.95" y="-352.12" font-family="sans" font-size="10.00">calculate_bid_offer_multipliers</text>
</g>
<!-- 102&#45;&gt;1 -->
<g id="edge7" class="edge">
<title>102&#45;&gt;1</title>
<path fill="none" stroke="grey" stroke-width="2" d="M269.26,-337.11C272.3,-316.32 274.84,-281.38 263.95,-254 258.2,-239.54 247.66,-226.28 237.05,-215.55"/>
<polygon fill="grey" stroke="grey" stroke-width="2" points="239.7,-213.24 230.03,-208.9 234.88,-218.32 239.7,-213.24"/>
</g>
<!-- 102&#45;&gt;101 -->
<g id="edge11" class="edge">
<title>102&#45;&gt;101</title>
<path fill="none" stroke="grey" stroke-width="2" d="M244.47,-337.21C230.98,-326.03 213.35,-311.43 198.31,-298.97"/>
<polygon fill="grey" stroke="grey" stroke-width="2" points="200.66,-296.37 190.72,-292.69 196.19,-301.76 200.66,-296.37"/>
</g>
<!-- 103 -->
<g id="node10" class="node">
<title>103</title>
<path fill="#e6f4ea" fill-opacity="0.752941" stroke="forestgreen" stroke-width="2" d="M323.08,-458C323.08,-458 208.83,-458 208.83,-458 202.83,-458 196.83,-452 196.83,-446 196.83,-446 196.83,-434 196.83,-434 196.83,-428 202.83,-422 208.83,-422 208.83,-422 323.08,-422 323.08,-422 329.08,-422 335.08,-428 335.08,-434 335.08,-434 335.08,-446 335.08,-446 335.08,-452 329.08,-458 323.08,-458"/>
<text xml:space="preserve" text-anchor="middle" x="265.95" y="-436.12" font-family="sans" font-size="10.00">fetch_bid_offer_data_elexon</text>
</g>
<!-- 103&#45;&gt;102 -->
<g id="edge13" class="edge">
<title>103&#45;&gt;102</title>
<path fill="none" stroke="grey" stroke-width="2" d="M265.95,-421.21C265.95,-411.43 265.95,-399.02 265.95,-387.73"/>
<polygon fill="grey" stroke="grey" stroke-width="2" points="269.45,-387.79 265.95,-377.79 262.45,-387.79 269.45,-387.79"/>
</g>
<!-- 104 -->
<g id="node11" class="node">
<title>104</title>
<path fill="#e6f4ea" fill-opacity="0.752941" stroke="forestgreen" stroke-width="2" d="M437.2,-206C437.2,-206 332.7,-206 332.7,-206 326.7,-206 320.7,-200 320.7,-194 320.7,-194 320.7,-182 320.7,-182 320.7,-176 326.7,-170 332.7,-170 332.7,-170 437.2,-170 437.2,-170 443.2,-170 449.2,-176 449.2,-182 449.2,-182 449.2,-194 449.2,-194 449.2,-200 443.2,-206 437.2,-206"/>
<text xml:space="preserve" text-anchor="middle" x="384.95" y="-184.12" font-family="sans" font-size="10.00">prepare_future_etys_caps</text>
</g>
<!-- 104&#45;&gt;0 -->
<g id="edge3" class="edge">
<title>104&#45;&gt;0</title>
<path fill="none" stroke="grey" stroke-width="2" d="M384.95,-169.02C384.95,-159.59 384.95,-147.75 384.95,-136.9"/>
<polygon fill="grey" stroke="grey" stroke-width="2" points="388.45,-136.95 384.95,-126.95 381.45,-136.95 388.45,-136.95"/>
</g>
<!-- 105&#45;&gt;0 -->
<g id="edge2" class="edge">
<title>105&#45;&gt;0</title>
<path fill="none" stroke="grey" stroke-width="2" d="M515.67,-169.02C491.52,-157.38 459.83,-142.1 433.7,-129.5"/>
<polygon fill="grey" stroke="grey" stroke-width="2" points="435.39,-126.43 424.86,-125.24 432.35,-132.74 435.39,-126.43"/>
</g>
<!-- _l0 -->
<g id="node14" class="node">
<title>_l0</title>
<path fill="#e6f4ea" fill-opacity="0.752941" stroke="forestgreen" stroke-width="2" d="M768.7,-541C768.7,-541 667.2,-541 667.2,-541 661.2,-541 655.2,-535 655.2,-529 655.2,-529 655.2,-517 655.2,-517 655.2,-511 661.2,-505 667.2,-505 667.2,-505 768.7,-505 768.7,-505 774.7,-505 780.7,-511 780.7,-517 780.7,-517 780.7,-529 780.7,-529 780.7,-535 774.7,-541 768.7,-541"/>
<text xml:space="preserve" text-anchor="middle" x="717.95" y="-519.12" font-family="sans" font-size="10.00">gb&#45;model subsystem rule</text>
</g>
<!-- _l1 -->
<g id="node15" class="node">
<title>_l1</title>
<path fill="#fbfbfb" fill-opacity="0.752941" stroke="black" stroke-width="2" d="M760.45,-458C760.45,-458 675.45,-458 675.45,-458 669.45,-458 663.45,-452 663.45,-446 663.45,-446 663.45,-434 663.45,-434 663.45,-428 669.45,-422 675.45,-422 675.45,-422 760.45,-422 760.45,-422 766.45,-422 772.45,-428 772.45,-434 772.45,-434 772.45,-446 772.45,-446 772.45,-452 766.45,-458 760.45,-458"/>
<text xml:space="preserve" text-anchor="middle" x="717.95" y="-436.12" font-family="sans" font-size="10.00">gb&#45;model general rule</text>
</g>
<!-- _l0&#45;&gt;_l1 -->
<!-- _l2 -->
<g id="node16" class="node">
<title>_l2</title>
<path fill="#ddeeff" fill-opacity="0.752941" stroke="steelblue" stroke-width="2" d="M748.45,-374C748.45,-374 687.45,-374 687.45,-374 681.45,-374 675.45,-368 675.45,-362 675.45,-362 675.45,-350 675.45,-350 675.45,-344 681.45,-338 687.45,-338 687.45,-338 748.45,-338 748.45,-338 754.45,-338 760.45,-344 760.45,-350 760.45,-350 760.45,-362 760.45,-362 760.45,-368 754.45,-374 748.45,-374"/>
<text xml:space="preserve" text-anchor="middle" x="717.95" y="-352.12" font-family="sans" font-size="10.00">PyPSA&#45;Eur rule</text>
</g>
<!-- _l1&#45;&gt;_l2 -->
<!-- _l3 -->
<g id="node17" class="node">
<title>_l3</title>
<polygon fill="lightyellow" stroke="darkorange" stroke-width="2" points="739.83,-290 690.08,-290 690.08,-254 745.83,-254 745.83,-284 739.83,-290"/>
<polyline fill="none" stroke="darkorange" stroke-width="2" points="739.83,-290 739.83,-284"/>
<polyline fill="none" stroke="darkorange" stroke-width="2" points="745.83,-284 739.83,-284"/>
<text xml:space="preserve" text-anchor="middle" x="717.95" y="-268.32" font-family="sans" font-size="9.00">output file</text>
</g>
<!-- _l2&#45;&gt;_l3 -->
</g>
</svg>
